# xmcd
#
# Track frame offsets:
#	150
#	11882
#	21755
#	31271
#	43726
#	54970
#	65974
#	72863
#	90082
#	102626
#	118597
#	129708
#	144017
#	160773
#	172798
#	183055
#	194896
#	208276
#	220407
#	234149
#	245068
#	262500
#	271044
#	287188
#	306498
#	324140
#
# Disc length: 4481
#
# Revision: 1
# Processed by: cddbd v1.5.1PL0 Copyright (c) Steve Scherf et al.
# Submitted via: dBpowerAMP V4.0
# Normalized: r0:TDELIM( - )
#
DISCID=71117f1a
DTITLE=Various Artist - The Highwaymen
DYEAR=2003
DGENRE=Country
TTITLE0=Johnny Cash - Highwayman (live)
TTITLE1=Willie Nelson - On the road again (live)
TTITLE2=Waylon Jennings - Abilene
TTITLE3=Kris Kristoffersen - Jesse Younger
TTITLE4=Johnny Cash - Big river
TTITLE5=Waylon Jennings - Lorena
TTITLE6=Willie Nelson - Luckenbach, Texas (live)
TTITLE7=Kris Kristoffersen - Casey's last ride
TTITLE8=Johnny Cash - Ring of fire (live)
TTITLE9=Willie Nelson - Angels flying too close to the ground (live)
TTITLE10=Waylon Jennings - Sally was a good girl
TTITLE11=Kris Kristoffersen - Out of mind, out of sight
TTITLE12=Johnny Cash - Sunday morning coming down (live)
TTITLE13=Willie Nelson - Seve spanish angels (live)
TTITLE14=Waylon Jennings - White lightening
TTITLE15=Kris Kristoffersen - Jesus was a Capricorn
TTITLE16=Willie Nelson - Undo the right
TTITLE17=Johnny Cash - Folsom prison blues (live)
TTITLE18=Wllie Nelson - Good hearted woman (live)
TTITLE19=Waylon Jennings - Big Mamou
TTITLE20=Kris Kristoffersen - Just the other side of nowhere
TTITLE21=Waylon Jennings - Lov's gonna live here
TTITLE22=Johnny Cash - City of New Orleans (live)
TTITLE23=Kris Kristoffersen - Sugar man
TTITLE24=Willie Nelson - Red-headed stranger (live)
TTITLE25=Waylon Jennings - Don't think twice it's all right
EXTD=
EXTT0=
EXTT1=
EXTT2=
EXTT3=
EXTT4=
EXTT5=
EXTT6=
EXTT7=
EXTT8=
EXTT9=
EXTT10=
EXTT11=
EXTT12=
EXTT13=
EXTT14=
EXTT15=
EXTT16=
EXTT17=
EXTT18=
EXTT19=
EXTT20=
EXTT21=
EXTT22=
EXTT23=
EXTT24=
EXTT25=
PLAYORDER=
